<?xml version="1.0" encoding="UTF-8" standalone="no"?>
<!-- Created with Inkscape (http://www.inkscape.org/) -->

<svg
   width="114.18353mm"
   height="147.00392mm"
   viewBox="0 0 114.18353 147.00392"
   version="1.1"
   id="svg1"
   xml:space="preserve"
   inkscape:version="1.3 (0e150ed6c4, 2023-07-21)"
   sodipodi:docname="GothBox Seal 2.svg"
   xmlns:inkscape="http://www.inkscape.org/namespaces/inkscape"
   xmlns:sodipodi="http://sodipodi.sourceforge.net/DTD/sodipodi-0.dtd"
   xmlns="http://www.w3.org/2000/svg"
   xmlns:svg="http://www.w3.org/2000/svg"
   xmlns:rdf="http://www.w3.org/1999/02/22-rdf-syntax-ns#"
   xmlns:cc="http://creativecommons.org/ns#"
   xmlns:dc="http://purl.org/dc/elements/1.1/"><title
     id="title4">Seal</title><sodipodi:namedview
     id="namedview1"
     pagecolor="#ffffff"
     bordercolor="#000000"
     borderopacity="0.25"
     inkscape:showpageshadow="2"
     inkscape:pageopacity="0.0"
     inkscape:pagecheckerboard="0"
     inkscape:deskcolor="#d1d1d1"
     inkscape:document-units="mm"
     inkscape:zoom="0.70910507"
     inkscape:cx="449.86281"
     inkscape:cy="532.36116"
     inkscape:window-width="1600"
     inkscape:window-height="821"
     inkscape:window-x="-9"
     inkscape:window-y="-9"
     inkscape:window-maximized="1"
     inkscape:current-layer="layer4"
     showgrid="false" /><defs
     id="defs1" /><metadata
     id="metadata4"><rdf:RDF><cc:Work
         rdf:about=""><dc:title>Seal</dc:title></cc:Work></rdf:RDF></metadata><g
     inkscape:groupmode="layer"
     id="layer4"
     inkscape:label="Layer 2"
     style="display:inline;fill:#000000;fill-opacity:1;stroke:none"
     transform="translate(-48.003568,-69.269529)"><path
       id="path6"
       style="display:inline;fill:#daa520;fill-opacity:1;stroke:none;stroke-width:0.264583"
       d="m 103.86523,69.291016 c -1.24659,0.0982 -2.65624,-0.326008 -3.71852,0.557172 -4.473594,3.191554 -9.00571,6.310066 -13.500226,9.476031 0,1.103515 0,2.207031 0,3.310547 1.371129,0.288069 3.104695,0.479044 3.828125,1.865234 0,6.250651 0,12.501302 0,18.75195 -11.126198,3.03091 -21.236088,9.79863 -28.077359,19.10651 -4.17319,5.55851 -7.32716,11.91519 -9.158969,18.60638 -0.762955,0.18337 -1.44342,0.7345 -1.534054,1.55337 -0.09296,1.06982 0.05772,2.14681 -0.0089,3.22241 1e-6,6.78308 0,13.56615 0,20.34922 4.185605,2.88758 8.372495,5.7733 12.558594,8.66016 -4.83071,-0.70096 -9.655237,1.65831 -12.891203,5.14852 -1.404104,1.51024 -2.687978,3.2102 -3.224444,5.23515 -0.493956,0.66567 0.501023,0.78482 0.886217,1.12655 0.736613,0.44064 1.473422,0.88095 2.209899,1.32181 2.436653,-1.95176 5.912452,-2.94096 8.880319,-1.64611 2.088213,0.79804 3.574387,2.57204 4.723414,4.41789 4.70182,6.38491 11.594245,10.76824 18.748509,13.95351 1.74909,0.77963 3.5359,1.47465 5.350883,2.08526 -1.461849,2.80174 -1.873787,6.00357 -1.923828,9.125 1.367838,0 2.735677,0 4.103516,0 1.057164,-1.39271 2.968152,-2.59438 4.720852,-1.75951 0.942209,0.38279 1.70123,1.09114 2.363132,1.84545 0.931534,-0.13868 2.253933,0.2511 2.763663,-0.81836 1.21586,-3.07995 2.38784,-6.17009 3.59766,-9.25196 0.80134,1.71554 1.60343,3.43073 2.4043,5.14649 2.92189,1.86457 5.84489,3.7274 8.76562,5.59375 4.56942,-3.11754 9.14021,-6.23309 13.70899,-9.35156 -0.82386,-0.8096 -1.64578,-1.62116 -2.46875,-2.43165 10.61592,-4.5534 19.82319,-12.6497 25.125,-22.96875 0.39896,-0.84547 0.76824,-1.70479 1.15429,-2.55664 -3.32596,-0.35932 -6.68058,0.0258 -10.00481,-0.27698 -1.44008,-0.23544 -3.18745,-1.08177 -3.23559,-2.75008 -0.081,-0.95617 -0.0113,-1.91727 -0.01,-2.87528 1.35269,0.63709 2.70685,1.27106 4.0586,1.91016 4.37272,-3.94295 9.32273,-7.20009 14.51172,-9.96289 0.0266,-7.5052 0.0492,-15.01042 0.0742,-22.51563 1.18012,-0.98529 2.36226,-1.96816 3.54102,-2.95508 -1.09835,-1.44902 -2.19739,-2.89753 -3.29687,-4.3457 -0.90693,0.77796 -1.8138,1.55599 -2.7207,2.33398 -2.539,-2.32363 -5.07848,-4.64675 -7.61719,-6.9707 -2.8769,2.19712 -5.7525,4.39596 -8.6289,6.59375 0,-7.86719 0,-15.73437 0,-23.60156 -5.16763,-4.16518 -10.94355,-7.68943 -17.29102,-9.72461 0.0595,-1.77351 -0.0134,-3.54824 0.0137,-5.322267 -3.19246,-3.015307 -6.38806,-6.027298 -9.58203,-9.041015 -2.90588,1.943265 -5.80974,3.889553 -8.71484,5.833984 0.0229,-8.67513 0.0446,-17.350264 0.0684,-26.025391 -0.18425,0.0072 -0.36849,0.01432 -0.55274,0.02148 z m 5.78321,34.585934 c 0,6.63151 0,13.26302 0,19.89453 -1.78581,-0.99934 -3.57162,-1.99869 -5.35742,-2.99804 0,-6.35808 0,-12.71615 0,-19.07422 0.63932,-0.45768 1.27864,-0.91537 1.91796,-1.37305 1.14649,1.1836 2.29297,2.36719 3.43946,3.55078 z m -18.984378,17.97657 c -2.16395,1.39861 -4.328902,2.79567 -6.492187,4.19531 1.207162,1.21276 2.412817,2.42703 3.619141,3.64062 1.108136,-0.66981 2.216136,-1.33986 3.324218,-2.00976 3.809245,2.29297 7.61849,4.58593 11.427736,6.8789 -4.105739,2.38235 -8.209326,4.76842 -12.316408,7.14844 0.0306,6.84309 0.05838,13.6862 0.08789,20.5293 -1.599094,1.32666 -3.197036,2.65471 -4.796875,3.98047 1.139303,1.36623 2.282902,2.72887 3.423828,4.09375 1.215929,-0.96317 2.432322,-1.92575 3.648438,-2.88867 1.715495,1.25781 3.430989,2.51562 5.146484,3.77343 -3.936976,2.70359 -7.872931,5.40867 -11.810547,8.11133 0.949417,1.44366 1.900475,2.88624 2.84961,4.33008 1.43147,-0.60093 2.516438,-1.88137 4.052734,-2.23633 1.359579,0.21422 1.712474,1.76636 2.22992,2.82511 1.293152,2.84606 2.586303,5.69211 3.879455,8.53817 -8.080384,-1.27687 -15.493947,-5.5662 -21.177734,-11.37305 2.074285,-1.39304 3.977803,-2.92721 6.200754,-4.06007 1.858976,-1.05103 3.330192,-2.99473 3.27132,-5.20203 0.03536,-1.64453 -0.747381,-3.14664 -1.579782,-4.50746 -1.23732,-2.86821 -0.638752,-6.05938 -0.779011,-9.08356 0,-5.27292 0,-10.54583 0,-15.81875 1.446524,-1.17329 2.893868,-2.34557 4.339844,-3.51953 -1.080532,-1.3568 -2.161644,-2.71313 -3.244141,-4.06836 -1.22559,0.96395 -2.451867,1.92703 -3.677734,2.89062 -2.727214,-2.03776 -5.454427,-4.07552 -8.181641,-6.11328 1.873636,-1.2913 3.137288,-3.22879 4.872689,-4.67755 3.486843,-3.14344 7.457943,-5.56872 11.687858,-7.50799 -0.002,0.71028 -0.0039,1.42057 -0.0059,2.13086 z m 32.507818,-0.67969 c 0.60705,0.073 -0.96662,1.13099 -0.55009,0.14649 -0.0984,-0.72576 0.13232,-0.26355 0.55009,-0.14649 z m 0.20898,4.99219 c 0.27886,0.73401 0.92006,-0.11003 1.39258,-0.22657 0.64614,-0.36513 1.72816,-0.76172 2.16992,0.10157 0.8785,1.49426 0.39594,3.30566 0.51367,4.94648 0,10.58359 0,21.16719 0,31.75078 -2.0681,1.8154 -4.13932,3.62725 -6.20508,5.44531 2.05388,0.22198 4.11172,0.25034 6.10547,0.6543 0,5.80013 0,11.60026 0,17.40039 -4.09803,2.88416 -8.75214,5.03581 -13.68359,6 -0.71094,-1.48893 -1.42188,-2.97786 -2.13281,-4.4668 0.32781,-0.80272 0.64271,-1.6311 0.97851,-2.41796 2.74862,1.2509 6.19502,1.72986 8.85943,0.015 2.96916,-1.86352 4.28925,-5.37706 4.91415,-8.67198 0.30463,-1.53523 0.37798,-3.10873 0.2733,-4.66916 -1.63282,0 -3.26563,0 -4.89844,0 -0.65611,1.14415 -2.01503,2.38559 -3.41406,1.75391 -0.89572,-0.35499 -1.61347,-1.03067 -2.22657,-1.75586 -1.23617,-0.0603 -2.47269,-0.11373 -3.70898,-0.17187 -1.22827,3.17161 -2.45144,6.3452 -3.67774,9.51757 -0.94538,-1.97913 -1.89018,-3.95854 -2.83593,-5.9375 -0.41376,-0.30662 -1.48762,-0.60791 -0.49242,-0.91912 5.87901,-3.60504 11.75778,-7.21047 17.63695,-10.81525 0,-7.81445 0,-15.62891 0,-23.44336 -4.1264,-3.2123 -8.254,-6.42306 -12.38086,-9.63477 3.78385,-2.14453 7.56771,-4.28906 11.35156,-6.43359 0.48698,0.65951 0.97396,1.31901 1.46094,1.97852 z m -13.56641,19.10546 c 0.006,6.41993 0.0117,12.83985 0.0176,19.25977 -2.04883,-1.38411 -4.09765,-2.76823 -6.14648,-4.15234 0,-6.4069 0,-12.81381 0,-19.22071 2.04297,1.3711 4.08593,2.74219 6.1289,4.11328 z m 35.64453,0.10938 c -0.007,6.83073 -0.013,13.66146 -0.0195,20.49219 -1.847,-0.81576 -3.69401,-1.63151 -5.54101,-2.44727 0.0684,-6.63346 0.13672,-13.26693 0.20508,-19.90039 0.52929,-0.40365 1.05859,-0.80729 1.58789,-1.21094 1.25586,1.02214 2.51171,2.04427 3.76757,3.06641 z m -74.542964,0.93359 c 0,5.6849 0,11.36979 0,17.05469 -1.98112,-1.27474 -3.96224,-2.54948 -5.94336,-3.82422 0.01888,-5.73763 0.03776,-11.47526 0.05664,-17.21289 1.962239,1.32748 3.924479,2.65495 5.88672,3.98242 z m 0.80664,25.35743 c 0.621778,1.87832 2.225286,3.41586 2.195313,5.48828 0.01474,0.64423 -0.432912,1.43283 -1.023438,1.57031 -2.048468,-1.69988 -4.467046,-3.01122 -7.058593,-3.66992 1.90625,-1.28776 3.812499,-2.57552 5.71875,-3.86328 0.05599,0.1582 0.111979,0.3164 0.167968,0.47461 z" /><path
       id="path2"
       style="display:inline;fill:#000000;fill-opacity:1;stroke:none;stroke-width:0.264583"
       d="m 101.49923,70.861308 -13.264306,9.288838 v 1.200444 c 3.34776,0.662612 3.827674,2.83807 3.827674,2.83807 v 20.27835 c -31.337387,8.05792 -37.46438,37.58789 -37.46438,37.58789 l -1.314132,0.63768 v 22.56607 l 11.988932,8.26409 7.289478,-4.9258 c 0.530587,3.34345 2.021065,5.09375 2.021065,5.09375 2.917478,6.10226 -1.97404,6.83266 -1.97404,6.83266 -12.769888,-10.84986 -21.551656,2.20762 -21.551656,2.20762 -0.777997,0.90267 -1.171504,2.19469 -1.171504,2.19469 l 1.297078,0.77463 c 6.885724,-4.61225 12.250932,0.41445 12.250932,0.41445 1.207238,1.1018 1.788521,2.00866 1.788521,2.00866 7.949881,12.42619 26.138973,17.37775 26.138973,17.37775 -2.629094,3.36275 -2.691825,8.42946 -2.691825,8.42946 h 1.752864 c 4.381826,-4.61959 8.414991,0.0351 8.414991,0.0351 h 0.742073 l 4.847252,-12.46487 3.7822,8.08891 7.49411,4.77904 11.24841,-7.66879 -2.14612,-2.11511 -2.28927,1.78335 c -3.33554,2.20803 -4.4266,-0.53071 -4.4266,-0.53071 24.59186,-6.26043 32.77423,-25.42481 32.77423,-25.42481 -0.28705,-0.0769 -6.73396,0 -6.73396,0 -6.24186,-0.58265 -5.73195,-4.78214 -5.73195,-4.78214 v -5.07514 l 5.40122,2.5399 c 5.99149,-5.31875 13.19041,-9.03563 13.19041,-9.03563 l 0.0679,-22.3094 2.94947,-2.45783 -1.36273,-1.79545 -2.5099,2.15124 -7.67552,-7.02277 -10.1229,7.73492 v -26.03923 c -9.31898,-7.4758 -17.27802,-9.30796 -17.27802,-9.30796 v -5.827553 l -8.16436,-7.703922 -10.13854,6.789203 0.0688,-27.386255 z m 4.90254,27.376623 4.83433,4.988329 V 126.476 l -8.53384,-4.77697 v -20.81372 z m -14.122648,15.313279 -0.02912,9.1694 -5.570024,3.59829 1.358057,1.36581 3.077146,-1.85583 11.972069,7.20383 17.95497,-10.17303 -0.0558,-8.31163 0.66766,4.20801 c 2.02592,0.7656 3.90726,1.91719 3.90726,1.91719 l 4.22971,-1.64692 -6.54482,4.28501 0.87902,1.18959 c 4.31893,-2.30323 4.92011,2.84685 4.92011,2.84685 v 36.11201 l -3.95169,3.46439 c 2.37094,0.15422 3.85144,0.68884 3.85144,0.68884 v 20.14968 h 1.83658 l 3.58428,-2.36833 -3.2613,2.82567 -2.77192,0.0108 v -0.73226 c -7.68056,5.49692 -15.06058,6.43889 -15.06058,6.43889 l 3.40651,8.28373 -6.86832,-14.39189 1.87017,-4.66535 c 12.78658,7.01826 13.44015,-9.40405 13.34647,-9.54825 h -2.56005 c -3.40614,4.36777 -7.16855,-0.0331 -7.16855,-0.0331 l -1.91461,-0.0879 -4.58629,11.88609 -4.21834,-8.8346 -6.311765,-3.78943 -10.162687,6.97838 1.168921,1.77354 1.858801,-1.17306 c 2.938643,-1.79566 4.585766,1.50327 4.585766,1.50327 l 7.725114,16.99741 -2.04794,4.80333 1.21336,-4.58267 -2.01486,-4.48345 C 85.041713,193.07624 75.4772,181.13224 75.726644,181.58013 l -5.754688,3.21117 9.89552,-6.77994 c 1.647422,-1.3219 2.560051,-1.65262 2.560051,-1.65262 5.0981,-2.41796 2.615861,-6.59287 2.615861,-6.59287 -1.981358,-2.73194 -1.758549,-6.42235 -1.758549,-6.42235 v -21.38216 l 3.70675,-3.00188 -1.280025,-1.60817 -3.395141,2.67115 -10.485665,-7.83776 -4.285527,2.7652 6.923609,-5.33197 c 6.578552,-7.9975 16.91938,-11.93571 16.91938,-11.93571 z m 17.628898,18.56682 -18.088302,10.50376 0.08888,20.35741 -4.151685,3.44217 1.413351,1.68568 3.384289,-2.67684 11.175547,8.1902 17.632,-10.81226 v -21.778 z m -7.80986,6.06423 9.30359,6.23868 0.0173,23.10352 -9.32088,-6.29658 z m -38.644669,1.16686 9.049577,6.12624 v 20.80648 l -9.123474,-5.87044 z m 78.272949,0.9484 5.32128,4.32651 -0.0194,23.6859 -8.72929,-3.85336 0.22324,-21.71653 z"
       sodipodi:nodetypes="ccccccccccccccccccccccccccccccccccccccccccccccccccccccccccccccccccccccccccccccccccccccccccccccccccccccccccccccccccccccccccccccccccccccccc" /></g></svg>
