<?xml version="1.0" encoding="UTF-8" standalone="no"?>
<!-- Created with Inkscape (http://www.inkscape.org/) -->

<svg
   width="171.4249mm"
   height="121.39942mm"
   viewBox="0 0 171.42491 121.39944"
   version="1.1"
   id="svg1"
   xml:space="preserve"
   inkscape:version="1.3 (0e150ed6c4, 2023-07-21)"
   sodipodi:docname="Window.svg"
   xmlns:inkscape="http://www.inkscape.org/namespaces/inkscape"
   xmlns:sodipodi="http://sodipodi.sourceforge.net/DTD/sodipodi-0.dtd"
   xmlns="http://www.w3.org/2000/svg"
   xmlns:svg="http://www.w3.org/2000/svg"><sodipodi:namedview
     id="namedview1"
     pagecolor="#ffffff"
     bordercolor="#000000"
     borderopacity="0.25"
     inkscape:showpageshadow="2"
     inkscape:pageopacity="0.0"
     inkscape:pagecheckerboard="0"
     inkscape:deskcolor="#d1d1d1"
     inkscape:document-units="mm"
     inkscape:zoom="0.66"
     inkscape:cx="630.30303"
     inkscape:cy="-191.66667"
     inkscape:window-width="1600"
     inkscape:window-height="821"
     inkscape:window-x="1911"
     inkscape:window-y="-9"
     inkscape:window-maximized="1"
     inkscape:current-layer="layer3"><inkscape:page
       x="0"
       y="0"
       width="171.42491"
       height="121.39944"
       id="page2"
       margin="0"
       bleed="0" /><inkscape:page
       x="0.047546022"
       y="-171.08673"
       width="171.37978"
       height="171.10883"
       id="page3"
       margin="0 0 0"
       bleed="0" /></sodipodi:namedview><defs
     id="defs1"><marker
       id="DistanceX"
       orient="auto"
       refX="0"
       refY="0"
       style="overflow:visible"><path
         d="M 3,-3 -3,3 M 0,-5 V 5"
         style="stroke:#000000;stroke-width:0.5"
         id="path1" /></marker><pattern
       id="Hatch"
       patternUnits="userSpaceOnUse"
       width="8"
       height="8"
       x="0"
       y="0"><path
         d="M8 4 l-4,4"
         stroke="#000000"
         stroke-width="0.25"
         linecap="square"
         id="path2" /><path
         d="M6 2 l-4,4"
         stroke="#000000"
         stroke-width="0.25"
         linecap="square"
         id="path3" /><path
         d="M4 0 l-4,4"
         stroke="#000000"
         stroke-width="0.25"
         linecap="square"
         id="path4" /></pattern><symbol
       id="$MODEL_SPACE" /><symbol
       id="$PAPER_SPACE" /></defs><g
     inkscape:groupmode="layer"
     id="layer2"
     inkscape:label="Layer 2"
     style="display:none"
     transform="translate(-19.025665,-173.33036)"><g
       id="layer4-6"
       inkscape:label="Layer 2"
       style="display:inline;fill:#000000;fill-opacity:1;stroke:none"
       transform="matrix(0.88616576,0,0,0.88616576,11.486554,-42.486978)"><path
         id="path6-6"
         style="display:inline;fill:#daa520;fill-opacity:1;stroke:none;stroke-width:0.264583"
         d="m 103.86523,69.291016 c -1.24659,0.0982 -2.65624,-0.326008 -3.71852,0.557172 -4.473594,3.191554 -9.00571,6.310066 -13.500226,9.476031 0,1.103515 0,2.207031 0,3.310547 1.371129,0.288069 3.104695,0.479044 3.828125,1.865234 0,6.250651 0,12.501302 0,18.75195 -11.126198,3.03091 -21.236088,9.79863 -28.077359,19.10651 -4.17319,5.55851 -7.32716,11.91519 -9.158969,18.60638 -0.762955,0.18337 -1.44342,0.7345 -1.534054,1.55337 -0.09296,1.06982 0.05772,2.14681 -0.0089,3.22241 1e-6,6.78308 0,13.56615 0,20.34922 4.185605,2.88758 8.372495,5.7733 12.558594,8.66016 -4.83071,-0.70096 -9.655237,1.65831 -12.891203,5.14852 -1.404104,1.51024 -2.687978,3.2102 -3.224444,5.23515 -0.493956,0.66567 0.501023,0.78482 0.886217,1.12655 0.736613,0.44064 1.473422,0.88095 2.209899,1.32181 2.436653,-1.95176 5.912452,-2.94096 8.880319,-1.64611 2.088213,0.79804 3.574387,2.57204 4.723414,4.41789 4.70182,6.38491 11.594245,10.76824 18.748509,13.95351 1.74909,0.77963 3.5359,1.47465 5.350883,2.08526 -1.461849,2.80174 -1.873787,6.00357 -1.923828,9.125 1.367838,0 2.735677,0 4.103516,0 1.057164,-1.39271 2.968152,-2.59438 4.720852,-1.75951 0.942209,0.38279 1.70123,1.09114 2.363132,1.84545 0.931534,-0.13868 2.253933,0.2511 2.763663,-0.81836 1.21586,-3.07995 2.38784,-6.17009 3.59766,-9.25196 0.80134,1.71554 1.60343,3.43073 2.4043,5.14649 2.92189,1.86457 5.84489,3.7274 8.76562,5.59375 4.56942,-3.11754 9.14021,-6.23309 13.70899,-9.35156 -0.82386,-0.8096 -1.64578,-1.62116 -2.46875,-2.43165 10.61592,-4.5534 19.82319,-12.6497 25.125,-22.96875 0.39896,-0.84547 0.76824,-1.70479 1.15429,-2.55664 -3.32596,-0.35932 -6.68058,0.0258 -10.00481,-0.27698 -1.44008,-0.23544 -3.18745,-1.08177 -3.23559,-2.75008 -0.081,-0.95617 -0.0113,-1.91727 -0.01,-2.87528 1.35269,0.63709 2.70685,1.27106 4.0586,1.91016 4.37272,-3.94295 9.32273,-7.20009 14.51172,-9.96289 0.0266,-7.5052 0.0492,-15.01042 0.0742,-22.51563 1.18012,-0.98529 2.36226,-1.96816 3.54102,-2.95508 -1.09835,-1.44902 -2.19739,-2.89753 -3.29687,-4.3457 -0.90693,0.77796 -1.8138,1.55599 -2.7207,2.33398 -2.539,-2.32363 -5.07848,-4.64675 -7.61719,-6.9707 -2.8769,2.19712 -5.7525,4.39596 -8.6289,6.59375 0,-7.86719 0,-15.73437 0,-23.60156 -5.16763,-4.16518 -10.94355,-7.68943 -17.29102,-9.72461 0.0595,-1.77351 -0.0134,-3.54824 0.0137,-5.322267 -3.19246,-3.015307 -6.38806,-6.027298 -9.58203,-9.041015 -2.90588,1.943265 -5.80974,3.889553 -8.71484,5.833984 0.0229,-8.67513 0.0446,-17.350264 0.0684,-26.025391 -0.18425,0.0072 -0.36849,0.01432 -0.55274,0.02148 z m 5.78321,34.585934 c 0,6.63151 0,13.26302 0,19.89453 -1.78581,-0.99934 -3.57162,-1.99869 -5.35742,-2.99804 0,-6.35808 0,-12.71615 0,-19.07422 0.63932,-0.45768 1.27864,-0.91537 1.91796,-1.37305 1.14649,1.1836 2.29297,2.36719 3.43946,3.55078 z m -18.984378,17.97657 c -2.16395,1.39861 -4.328902,2.79567 -6.492187,4.19531 1.207162,1.21276 2.412817,2.42703 3.619141,3.64062 1.108136,-0.66981 2.216136,-1.33986 3.324218,-2.00976 3.809245,2.29297 7.61849,4.58593 11.427736,6.8789 -4.105739,2.38235 -8.209326,4.76842 -12.316408,7.14844 0.0306,6.84309 0.05838,13.6862 0.08789,20.5293 -1.599094,1.32666 -3.197036,2.65471 -4.796875,3.98047 1.139303,1.36623 2.282902,2.72887 3.423828,4.09375 1.215929,-0.96317 2.432322,-1.92575 3.648438,-2.88867 1.715495,1.25781 3.430989,2.51562 5.146484,3.77343 -3.936976,2.70359 -7.872931,5.40867 -11.810547,8.11133 0.949417,1.44366 1.900475,2.88624 2.84961,4.33008 1.43147,-0.60093 2.516438,-1.88137 4.052734,-2.23633 1.359579,0.21422 1.712474,1.76636 2.22992,2.82511 1.293152,2.84606 2.586303,5.69211 3.879455,8.53817 -8.080384,-1.27687 -15.493947,-5.5662 -21.177734,-11.37305 2.074285,-1.39304 3.977803,-2.92721 6.200754,-4.06007 1.858976,-1.05103 3.330192,-2.99473 3.27132,-5.20203 0.03536,-1.64453 -0.747381,-3.14664 -1.579782,-4.50746 -1.23732,-2.86821 -0.638752,-6.05938 -0.779011,-9.08356 0,-5.27292 0,-10.54583 0,-15.81875 1.446524,-1.17329 2.893868,-2.34557 4.339844,-3.51953 -1.080532,-1.3568 -2.161644,-2.71313 -3.244141,-4.06836 -1.22559,0.96395 -2.451867,1.92703 -3.677734,2.89062 -2.727214,-2.03776 -5.454427,-4.07552 -8.181641,-6.11328 1.873636,-1.2913 3.137288,-3.22879 4.872689,-4.67755 3.486843,-3.14344 7.457943,-5.56872 11.687858,-7.50799 -0.002,0.71028 -0.0039,1.42057 -0.0059,2.13086 z m 32.507818,-0.67969 c 0.60705,0.073 -0.96662,1.13099 -0.55009,0.14649 -0.0984,-0.72576 0.13232,-0.26355 0.55009,-0.14649 z m 0.20898,4.99219 c 0.27886,0.73401 0.92006,-0.11003 1.39258,-0.22657 0.64614,-0.36513 1.72816,-0.76172 2.16992,0.10157 0.8785,1.49426 0.39594,3.30566 0.51367,4.94648 0,10.58359 0,21.16719 0,31.75078 -2.0681,1.8154 -4.13932,3.62725 -6.20508,5.44531 2.05388,0.22198 4.11172,0.25034 6.10547,0.6543 0,5.80013 0,11.60026 0,17.40039 -4.09803,2.88416 -8.75214,5.03581 -13.68359,6 -0.71094,-1.48893 -1.42188,-2.97786 -2.13281,-4.4668 0.32781,-0.80272 0.64271,-1.6311 0.97851,-2.41796 2.74862,1.2509 6.19502,1.72986 8.85943,0.015 2.96916,-1.86352 4.28925,-5.37706 4.91415,-8.67198 0.30463,-1.53523 0.37798,-3.10873 0.2733,-4.66916 -1.63282,0 -3.26563,0 -4.89844,0 -0.65611,1.14415 -2.01503,2.38559 -3.41406,1.75391 -0.89572,-0.35499 -1.61347,-1.03067 -2.22657,-1.75586 -1.23617,-0.0603 -2.47269,-0.11373 -3.70898,-0.17187 -1.22827,3.17161 -2.45144,6.3452 -3.67774,9.51757 -0.94538,-1.97913 -1.89018,-3.95854 -2.83593,-5.9375 -0.41376,-0.30662 -1.48762,-0.60791 -0.49242,-0.91912 5.87901,-3.60504 11.75778,-7.21047 17.63695,-10.81525 0,-7.81445 0,-15.62891 0,-23.44336 -4.1264,-3.2123 -8.254,-6.42306 -12.38086,-9.63477 3.78385,-2.14453 7.56771,-4.28906 11.35156,-6.43359 0.48698,0.65951 0.97396,1.31901 1.46094,1.97852 z m -13.56641,19.10546 c 0.006,6.41993 0.0117,12.83985 0.0176,19.25977 -2.04883,-1.38411 -4.09765,-2.76823 -6.14648,-4.15234 0,-6.4069 0,-12.81381 0,-19.22071 2.04297,1.3711 4.08593,2.74219 6.1289,4.11328 z m 35.64453,0.10938 c -0.007,6.83073 -0.013,13.66146 -0.0195,20.49219 -1.847,-0.81576 -3.69401,-1.63151 -5.54101,-2.44727 0.0684,-6.63346 0.13672,-13.26693 0.20508,-19.90039 0.52929,-0.40365 1.05859,-0.80729 1.58789,-1.21094 1.25586,1.02214 2.51171,2.04427 3.76757,3.06641 z m -74.542964,0.93359 c 0,5.6849 0,11.36979 0,17.05469 -1.98112,-1.27474 -3.96224,-2.54948 -5.94336,-3.82422 0.01888,-5.73763 0.03776,-11.47526 0.05664,-17.21289 1.962239,1.32748 3.924479,2.65495 5.88672,3.98242 z m 0.80664,25.35743 c 0.621778,1.87832 2.225286,3.41586 2.195313,5.48828 0.01474,0.64423 -0.432912,1.43283 -1.023438,1.57031 -2.048468,-1.69988 -4.467046,-3.01122 -7.058593,-3.66992 1.90625,-1.28776 3.812499,-2.57552 5.71875,-3.86328 0.05599,0.1582 0.111979,0.3164 0.167968,0.47461 z" /><path
         id="path2-3"
         style="display:inline;fill:#000000;fill-opacity:1;stroke:none;stroke-width:0.264583"
         d="m 101.49923,70.861308 -13.264306,9.288838 v 1.200444 c 3.34776,0.662612 3.827674,2.83807 3.827674,2.83807 v 20.27835 c -31.337387,8.05792 -37.46438,37.58789 -37.46438,37.58789 l -1.314132,0.63768 v 22.56607 l 11.988932,8.26409 7.289478,-4.9258 c 0.530587,3.34345 2.021065,5.09375 2.021065,5.09375 2.917478,6.10226 -1.97404,6.83266 -1.97404,6.83266 -12.769888,-10.84986 -21.551656,2.20762 -21.551656,2.20762 -0.777997,0.90267 -1.171504,2.19469 -1.171504,2.19469 l 1.297078,0.77463 c 6.885724,-4.61225 12.250932,0.41445 12.250932,0.41445 1.207238,1.1018 1.788521,2.00866 1.788521,2.00866 7.949881,12.42619 26.138973,17.37775 26.138973,17.37775 -2.629094,3.36275 -2.691825,8.42946 -2.691825,8.42946 h 1.752864 c 4.381826,-4.61959 8.414991,0.0351 8.414991,0.0351 h 0.742073 l 4.847252,-12.46487 3.7822,8.08891 7.49411,4.77904 11.24841,-7.66879 -2.14612,-2.11511 -2.28927,1.78335 c -3.33554,2.20803 -4.4266,-0.53071 -4.4266,-0.53071 24.59186,-6.26043 32.77423,-25.42481 32.77423,-25.42481 -0.28705,-0.0769 -6.73396,0 -6.73396,0 -6.24186,-0.58265 -5.73195,-4.78214 -5.73195,-4.78214 v -5.07514 l 5.40122,2.5399 c 5.99149,-5.31875 13.19041,-9.03563 13.19041,-9.03563 l 0.0679,-22.3094 2.94947,-2.45783 -1.36273,-1.79545 -2.5099,2.15124 -7.67552,-7.02277 -10.1229,7.73492 v -26.03923 c -9.31898,-7.4758 -17.27802,-9.30796 -17.27802,-9.30796 v -5.827553 l -8.16436,-7.703922 -10.13854,6.789203 0.0688,-27.386255 z m 4.90254,27.376623 4.83433,4.988329 V 126.476 l -8.53384,-4.77697 v -20.81372 z m -14.122648,15.313279 -0.02912,9.1694 -5.570024,3.59829 1.358057,1.36581 3.077146,-1.85583 11.972069,7.20383 17.95497,-10.17303 -0.0558,-8.31163 0.66766,4.20801 c 2.02592,0.7656 3.90726,1.91719 3.90726,1.91719 l 4.22971,-1.64692 -6.54482,4.28501 0.87902,1.18959 c 4.31893,-2.30323 4.92011,2.84685 4.92011,2.84685 v 36.11201 l -3.95169,3.46439 c 2.37094,0.15422 3.85144,0.68884 3.85144,0.68884 v 20.14968 h 1.83658 l 3.58428,-2.36833 -3.2613,2.82567 -2.77192,0.0108 v -0.73226 c -7.68056,5.49692 -15.06058,6.43889 -15.06058,6.43889 l 3.40651,8.28373 -6.86832,-14.39189 1.87017,-4.66535 c 12.78658,7.01826 13.44015,-9.40405 13.34647,-9.54825 h -2.56005 c -3.40614,4.36777 -7.16855,-0.0331 -7.16855,-0.0331 l -1.91461,-0.0879 -4.58629,11.88609 -4.21834,-8.8346 -6.311765,-3.78943 -10.162687,6.97838 1.168921,1.77354 1.858801,-1.17306 c 2.938643,-1.79566 4.585766,1.50327 4.585766,1.50327 l 7.725114,16.99741 -2.04794,4.80333 1.21336,-4.58267 -2.01486,-4.48345 C 85.041713,193.07624 75.4772,181.13224 75.726644,181.58013 l -5.754688,3.21117 9.89552,-6.77994 c 1.647422,-1.3219 2.560051,-1.65262 2.560051,-1.65262 5.0981,-2.41796 2.615861,-6.59287 2.615861,-6.59287 -1.981358,-2.73194 -1.758549,-6.42235 -1.758549,-6.42235 v -21.38216 l 3.70675,-3.00188 -1.280025,-1.60817 -3.395141,2.67115 -10.485665,-7.83776 -4.285527,2.7652 6.923609,-5.33197 c 6.578552,-7.9975 16.91938,-11.93571 16.91938,-11.93571 z m 17.628898,18.56682 -18.088302,10.50376 0.08888,20.35741 -4.151685,3.44217 1.413351,1.68568 3.384289,-2.67684 11.175547,8.1902 17.632,-10.81226 v -21.778 z m -7.80986,6.06423 9.30359,6.23868 0.0173,23.10352 -9.32088,-6.29658 z m -38.644669,1.16686 9.049577,6.12624 v 20.80648 l -9.123474,-5.87044 z m 78.272949,0.9484 5.32128,4.32651 -0.0194,23.6859 -8.72929,-3.85336 0.22324,-21.71653 z"
         sodipodi:nodetypes="ccccccccccccccccccccccccccccccccccccccccccccccccccccccccccccccccccccccccccccccccccccccccccccccccccccccccccccccccccccccccccccccccccccccccc" /></g></g><g
     inkscape:groupmode="layer"
     id="g60"
     inkscape:label="Layer 2 copy"
     style="display:none"
     transform="matrix(0.6082537,0,0,0.6082537,20.295683,-136.57183)"><g
       id="g59"
       inkscape:label="Layer 2"
       style="display:inline;fill:#000000;fill-opacity:1;stroke:none"
       transform="matrix(0.97626372,0,0,0.97626372,3.6660523,-55.266223)" /><g
       inkscape:label="Layer 1"
       inkscape:groupmode="layer"
       id="layer1"
       style="display:inline"
       transform="matrix(1.6440508,0,0,1.6440508,-64.646295,-60.432895)"><g
         id="layer4"
         inkscape:label="Layer 2"
         style="display:inline;fill:#000000;fill-opacity:1;stroke:none"
         transform="matrix(0.59678372,0,0,0.59678372,42.193143,4.6006672)"><g
           inkscape:label="0"
           id="g56"
           transform="matrix(2.686301,0,0,2.686301,-38.675497,-2529.5671)"><path
             style="fill:none;stroke:#000000"
             d="M 0,1122.52 H 53.4506"
             id="path5" /><path
             style="fill:none;stroke:#000000"
             d="M 106.901,1122.52 H 53.4506"
             id="path6" /><path
             style="fill:none;stroke:#000000"
             d="M 0,1122.52 V 1014.98"
             id="path7" /><path
             style="fill:none;stroke:#000000"
             d="m 37.7953,949.517 15.6553,-9.038"
             id="path8" /><path
             d="M 37.795276,949.51747 A 75.590551,75.590551 0 0 0 0,1014.9808"
             style="fill:none;stroke:#000000"
             id="path9" /><path
             style="fill:none;stroke:#000000"
             d="M 106.901,1122.52 V 1014.98"
             id="path10" /><path
             style="fill:none;stroke:#000000"
             d="M 69.1059,949.517 53.4506,940.479"
             id="path11" /><path
             d="M 106.90118,1014.9808 A 75.590551,75.590551 0 0 0 69.105907,949.51747"
             style="fill:none;stroke:#000000"
             id="path12" /><path
             d="M 99.342128,1014.9808 A 68.031496,68.031496 0 0 0 65.32638,956.0638"
             style="fill:none;stroke:#000000"
             id="path13" /><path
             style="fill:none;stroke:#000000"
             d="m 65.3264,956.064 -8.0963,-4.675"
             id="path14" /><path
             style="fill:none;stroke:#000000"
             d="m 99.3421,1114.96 v -60.47"
             id="path15" /><path
             d="M 41.574803,956.0638 A 68.031496,68.031496 0 0 0 20.708717,974.77796"
             style="fill:none;stroke:#000000"
             id="path16" /><path
             style="fill:none;stroke:#000000"
             d="m 41.5748,956.064 8.0963,-4.675"
             id="path17" /><path
             style="fill:none;stroke:#000000"
             d="m 7.55905,1114.96 v -60.47"
             id="path18" /><path
             style="fill:none;stroke:#000000"
             d="m 49.6711,951.389 v 12.852"
             id="path19" /><path
             style="fill:none;stroke:#000000"
             d="m 57.2301,951.389 v 12.852"
             id="path20" /><path
             style="fill:none;stroke:#000000"
             d="m 57.2301,1031.85 v 15.08"
             id="path21" /><path
             style="fill:none;stroke:#000000"
             d="m 49.6711,1031.85 v 15.08"
             id="path22" /><path
             style="fill:none;stroke:#000000"
             d="m 26.0643,977.87 -5.3556,-3.092"
             id="path23" /><path
             style="fill:none;stroke:#000000"
             d="M 26.0643,1018.22 7.55905,1028.91"
             id="path24" /><path
             style="fill:none;stroke:#000000"
             d="m 22.2847,1011.68 -14.72565,8.5"
             id="path25" /><path
             style="fill:none;stroke:#000000"
             d="m 22.2847,984.416 -5.7026,-3.292"
             id="path26" /><path
             style="fill:none;stroke:#000000"
             d="M 7.55905,1114.96 H 49.6711"
             id="path27" /><path
             style="fill:none;stroke:#000000"
             d="M 99.3421,1114.96 H 57.2301"
             id="path28" /><path
             d="m 35.976039,983.59255 a 22.677165,22.677165 0 0 0 -3.779528,6.54634"
             style="fill:none;stroke:#000000"
             id="path29" /><path
             style="fill:none;stroke:#000000"
             d="m 49.6711,1024.23 v -3.82"
             id="path30" /><path
             style="fill:none;stroke:#000000"
             d="m 57.2301,1024.23 v -3.82"
             id="path31" /><path
             style="fill:none;stroke:#000000"
             d="m 32.6632,1014.41 3.3128,-1.91"
             id="path32" /><path
             style="fill:none;stroke:#000000"
             d="m 28.8837,1007.87 3.3128,-1.92"
             id="path33" /><path
             style="fill:none;stroke:#000000"
             d="m 28.8837,988.226 3.3128,1.913"
             id="path34" /><path
             style="fill:none;stroke:#000000"
             d="m 32.6632,981.68 3.3128,1.913"
             id="path35" /><path
             style="fill:none;stroke:#000000"
             d="M 49.6711,975.686 V 971.86"
             id="path36" /><path
             style="fill:none;stroke:#000000"
             d="M 57.2301,975.686 V 971.86"
             id="path37" /><path
             d="m 49.671064,964.24059 a 34.015748,34.015748 0 0 0 -23.606803,13.6294"
             style="fill:none;stroke:#000000"
             id="path38" /><path
             d="m 49.671064,971.86038 a 26.456693,26.456693 0 0 0 -17.007874,9.8195"
             style="fill:none;stroke:#000000"
             id="path39" /><path
             d="m 57.230119,975.68573 a 22.677165,22.677165 0 0 0 -7.559055,0"
             style="fill:none;stroke:#000000"
             id="path40" /><path
             d="m 32.196511,1005.9525 a 22.677165,22.677165 0 0 0 3.779528,6.5464"
             style="fill:none;stroke:#000000"
             id="path41" /><path
             d="m 49.671064,1020.4057 a 22.677165,22.677165 0 0 0 7.559055,0"
             style="fill:none;stroke:#000000"
             id="path42" /><path
             d="m 22.284733,984.41632 a 34.015748,34.015748 0 0 0 0,27.25878"
             style="fill:none;stroke:#000000"
             id="path43" /><path
             d="m 28.883662,988.22621 a 26.456693,26.456693 0 0 0 0,19.63899"
             style="fill:none;stroke:#000000"
             id="path44" /><path
             d="m 26.064261,1018.2214 a 34.015748,34.015748 0 0 0 23.606803,13.6294"
             style="fill:none;stroke:#000000"
             id="path45" /><path
             d="m 32.66319,1014.4115 a 26.456693,26.456693 0 0 0 17.007874,9.8196"
             style="fill:none;stroke:#000000"
             id="path46" /><path
             d="m 57.230119,1031.8508 a 34.015748,34.015748 0 0 0 0,-67.61021"
             style="fill:none;stroke:#000000"
             id="path47" /><path
             d="m 57.230119,1024.2311 a 26.456693,26.456693 0 0 0 0,-52.37072"
             style="fill:none;stroke:#000000"
             id="path48" /><path
             d="M 16.582118,981.12391 A 68.031496,68.031496 0 0 0 7.559055,1014.9808"
             style="fill:none;stroke:#000000"
             id="path49" /><path
             style="fill:none;stroke:#000000"
             d="m 7.55905,1020.18 v -5.2"
             id="path50" /><path
             d="M 49.671064,1046.9291 H 7.559055"
             style="fill:none;stroke:#000000"
             id="path51" /><path
             d="m 7.559055,1114.9606 h 91.783073 v -60.4724 H 7.559055 Z"
             style="fill:none;stroke:#000000"
             id="path52" /><path
             style="fill:none;stroke:#000000"
             d="m 7.55905,1046.93 v -18.02"
             id="path53" /><path
             style="fill:none;stroke:#000000"
             d="m 99.3421,1046.93 v -31.95"
             id="path54" /><path
             d="m 0,1046.9291 v 0 75.5906 h 106.90118 v -75.5906"
             style="fill:none;stroke:#000000"
             id="path55" /><path
             d="M 99.342128,1046.9291 H 57.230119"
             style="fill:none;stroke:#000000"
             id="path56" /></g></g></g></g><g
     inkscape:groupmode="layer"
     id="layer3"
     inkscape:label="Layer 3"
     style="display:inline;stroke:#daa520"
     transform="translate(-19.025665,-173.33036)"><path
       id="path57"
       style="fill:#daa520;stroke:none;stroke-width:2;stroke-dasharray:none"
       d="M 104.74141,2.4685832 80.054545,16.927649 C 19.573174,51.312109 19.044,120 19.044,120 l -2.01e-4,174.7355 171.394711,-0.15348 V 120 C 186.37136,47.396293 129.25154,16.928 129.25154,16.928 Z M 98.62137,20 V 40.645581 C 73.062274,43.263829 61.092912,62.713485 61.092912,62.713485 l -8.478036,-4.925507 c 0,0 8.867919,-15.570985 27.440124,-26.895469 z m 12.1021,0 18.52853,11.314716 c 0,0 48.97873,28.935943 48.899,100.859284 v 41.171 h -67.13294 l -0.18707,-24.074 c 27.90975,-3.79543 48.6976,-27.00603 48.6916,-54.260262 -0.006,-27.254244 -20.80348,-50.509391 -48.46836,-54.198242 z m -8.90023,25.221012 0.78652,0.01395 -0.0408,16.262573 6.02031,-4.031795 4.84828,4.574915 v 3.46077 c 0,0 4.72609,1.087549 10.25984,5.526795 v 15.462622 l 6.01152,-4.593002 4.55786,4.170289 1.49035,-1.277442 0.80925,1.066085 -1.75183,1.459342 -0.0403,13.247776 c 0,0 -4.27476,2.20721 -7.83259,5.36556 l -3.20704,-1.50843 v 3.01377 c 0,0 -0.30311,2.49363 3.40341,2.83962 0,0 3.82826,-0.0457 3.99872,0 0,0 -4.85884,11.38024 -19.46186,15.09778 0,0 0.64808,1.62639 2.62878,0.31523 l 1.35909,-1.05885 1.27486,1.25574 -6.6797,4.55372 -4.45037,-2.83755 -2.24586,-4.80332 -2.87838,7.40161 h -0.44028 c 0,0 -2.395118,-2.76385 -4.997114,-0.0207 h -1.040763 c 0,0 0.03716,-3.00853 1.598352,-5.00538 0,0 -10.801288,-2.9404 -15.52205,-10.31927 0,0 -0.345075,-0.53842 -1.061951,-1.19269 0,0 -3.185642,-2.98532 -7.274491,-0.24649 l -0.770496,-0.45992 c 0,0 0.233578,-0.76726 0.695565,-1.30328 0,0 5.214712,-7.75333 12.797668,-1.31052 0,0 2.904982,-0.43402 1.172538,-4.05763 0,0 -0.885372,-1.03923 -1.200443,-3.02462 l -4.328418,2.92488 -7.118945,-4.90719 V 87.875773 l 0.780314,-0.378788 c 0,0 3.63808,-17.535168 22.246704,-22.320085 V 53.135258 c 0,0 -0.284778,-1.291699 -2.27273,-1.685168 v -0.713135 z m 8.99015,7.788672 c 20.98169,2.981714 36.29268,20.798666 36.33318,41.834656 0.0405,21.03599 -15.41062,39.11801 -36.27995,42.17966 v -5.85836 c 2.51627,-1.71655 5.03307,-3.43236 7.54889,-5.14956 -0.48922,-0.48075 -0.97737,-0.96256 -1.46606,-1.44384 6.30389,-2.70388 11.77172,-7.51187 14.92002,-13.63948 0.23691,-0.50205 0.45599,-1.01189 0.68523,-1.51773 -1.97501,-0.21337 -3.96726,0.0149 -5.94124,-0.16485 -0.85514,-0.13981 -1.89274,-0.64231 -1.92133,-1.63298 -0.0481,-0.56778 -0.006,-1.1385 -0.006,-1.70739 0.80324,0.37832 1.6075,0.75479 2.41018,1.1343 2.59659,-2.34138 5.53575,-4.27532 8.61705,-5.91592 0.0158,-4.45669 0.0291,-8.913535 0.0439,-13.370239 0.70078,-0.585081 1.40275,-1.168883 2.10272,-1.754932 -0.65222,-0.860449 -1.30462,-1.720259 -1.9575,-2.580204 -0.53855,0.461964 -1.07688,0.923979 -1.61541,1.385962 -1.5077,-1.379806 -3.01571,-2.759287 -4.52324,-4.139282 -1.70835,1.304681 -3.41618,2.609926 -5.12423,3.915006 V 70.569853 c -3.06862,-2.473346 -6.49838,-4.566321 -10.26759,-5.774842 0.0353,-1.053136 -0.008,-2.107087 0.008,-3.16053 -1.18599,-1.120174 -2.37325,-2.239086 -3.55999,-3.358452 v -5.16e-4 z M 95.276355,53.67631 v 10.779187 c -6.606901,1.799799 -12.610436,5.818403 -16.672884,11.345561 -2.478103,3.300726 -4.350672,7.07561 -5.438428,11.048938 -0.453053,0.108888 -0.857236,0.436168 -0.911055,0.922424 -0.0552,0.635276 0.03439,1.274871 -0.0052,1.913579 V 101.7695 c 2.485475,1.71469 4.971658,3.42806 7.457426,5.14232 -2.868547,-0.41624 -5.733265,0.98516 -7.65483,3.05769 -0.09582,0.10307 -0.185168,0.21321 -0.278536,0.31937 -0.372597,-0.82195 -0.73736,-1.66902 -1.119311,-2.59158 l -5.115451,2.97605 C 60.946214,100.21103 61.653889,89.284777 65.449752,79.176562 l 5.369698,3.162081 c 1.895206,-5.165682 3.266625,-6.806804 5.983097,-10.604004 L 71.442151,68.80872 C 77.464293,61.14455 85.846549,55.836293 95.276355,53.67631 Z m 13.413655,2.589506 c -1.72544,1.153861 -3.4494,2.309836 -5.17436,3.464388 v -5.17e-4 c 1.72487,-1.154495 3.44901,-2.310067 5.17436,-3.463871 z m -3.95583,5.212085 -2.19677,1.571997 v 12.359453 l 5.06739,2.836519 V 64.439994 Z m -0.11421,1.240235 c 0.6808,0.702839 1.36145,1.405565 2.04225,2.108398 v 11.813749 c -1.06044,-0.593422 -2.12076,-1.186823 -3.1812,-1.780253 V 63.533073 c 0.37964,-0.271778 0.75931,-0.543161 1.13895,-0.814937 z m -58.308745,5.481676 8.328334,4.872214 c -10.039104,26.990354 0.49351,43.777174 0.49351,43.777174 L 31.332,132.17407 C 30.937251,90.975722 46.311225,68.199812 46.311225,68.199812 Z m 50.036899,2.371591 -0.529166,2.45308 c 0,0 -6.140487,2.338384 -10.046932,7.087423 l -4.111377,3.166215 2.545064,-1.642277 6.226493,4.654496 2.015898,-1.586466 0.76016,0.95498 -2.200899,1.782837 v 12.696899 c 0,0 -0.132697,2.19145 1.043864,3.81372 0,0 1.473937,2.47919 -1.553394,3.91501 0,0 -0.541539,0.19637 -1.519804,0.98133 l -5.876127,4.02611 3.416846,-1.90686 c -0.148124,-0.26596 5.53143,6.8267 14.76654,7.71581 l 1.19683,2.66237 -0.72089,2.72128 1.21646,-2.85254 -4.587313,-10.09344 c 0,0 -0.978337,-1.95874 -2.723348,-0.89245 l -1.103809,0.6966 -0.694014,-1.05317 6.034773,-4.14393 3.748091,2.24999 2.50476,5.24619 2.72335,-7.05796 1.13688,0.0522 c 0,0 2.23448,2.61329 4.2571,0.0196 h 1.52032 c 0.0556,0.0856 -0.33274,9.83749 -7.92561,5.66993 l -1.11053,2.77038 4.07882,8.54625 -2.02313,-4.91908 c 0,0 4.38229,-0.55939 8.94312,-3.82354 v 0.4346 l 1.6459,-0.006 1.93683,-1.67794 -2.12855,1.40612 h -1.09037 v -11.96516 c 0,0 -0.8793,-0.31719 -2.2872,-0.40876 l 2.34662,-2.05724 V 78.763668 c 0,0 -0.35713,-3.05803 -2.92178,-1.690336 l -0.52193,-0.706417 3.88658,-2.544548 -2.51147,0.978235 c 0,0 -1.11725,-0.684323 -2.32028,-1.138948 l -0.39635,-2.498556 0.0331,4.935616 -10.66188,6.040975 -7.109646,-4.277775 -1.827279,1.101742 -0.806152,-0.810804 3.307291,-2.13682 z m -0.955497,3.664376 -0.0036,1.265556 c -1.284986,0.830515 -2.570472,1.660194 -3.855062,2.49132 0.71683,0.720156 1.432889,1.440977 2.149223,2.161626 0.658027,-0.397744 1.315526,-0.795413 1.973523,-1.193209 2.261985,1.361599 4.524159,2.722905 6.786149,4.084505 -2.43804,1.414675 -4.874919,2.831927 -7.313766,4.245219 0.01817,4.063528 0.03467,8.126936 0.05219,12.19047 -0.949565,0.787794 -1.898397,1.576424 -2.848405,2.363684 0.676536,0.81128 1.355453,1.62037 2.032951,2.43086 0.722038,-0.57195 1.444646,-1.14335 2.166793,-1.71515 l 3.056144,2.24069 c -2.337834,1.60544 -4.67531,3.21137 -7.013525,4.81625 0.563777,0.85727 1.128793,1.71404 1.692403,2.57142 0.850028,-0.35684 1.494296,-1.11731 2.406571,-1.32809 0.807339,0.12721 1.016683,1.04924 1.323951,1.67794 0.767892,1.69003 1.53584,3.37994 2.303733,5.06997 -4.798252,-0.75822 -9.20034,-3.30539 -12.575458,-6.75359 1.231742,-0.82721 2.361924,-1.738 3.681946,-2.41071 1.103888,-0.62411 1.977476,-1.77848 1.942517,-3.08921 0.021,-0.97655 -0.443636,-1.86877 -0.937927,-2.67684 -0.734739,-1.70319 -0.379216,-3.598186 -0.462504,-5.393989 v -9.393225 c 0.858967,-0.696717 1.717945,-1.39268 2.576587,-2.089795 -0.641637,-0.805688 -1.283179,-1.611118 -1.925981,-2.415873 -0.727773,0.572407 -1.456424,1.143981 -2.184363,1.716174 L 85.558602,81.47203 c 1.112593,-0.766794 1.862856,-1.917313 2.893363,-2.777609 2.070539,-1.866621 4.428875,-3.307075 6.940662,-4.458642 z m 19.021573,0.717785 c 0.058,0.02344 0.1545,0.109422 0.27854,0.144178 0.36048,0.04335 -0.57394,0.671427 -0.32659,0.08682 -0.0292,-0.215484 -0.01,-0.254428 0.048,-0.230994 z m -0.46508,1.933733 c 0.28917,0.391626 0.57847,0.782978 0.86764,1.174605 0.1656,0.435865 0.54624,-0.06516 0.82683,-0.134359 0.38369,-0.21682 1.02648,-0.452173 1.28881,0.06046 0.52166,0.887313 0.23498,1.962945 0.30489,2.937288 v 18.854146 c -1.22807,1.078013 -2.45785,2.153803 -3.68453,3.233393 1.21962,0.13182 2.44118,0.14873 3.6251,0.38861 v 10.3327 c -2.43347,1.71266 -5.19672,2.99003 -8.12508,3.56258 -0.42217,-0.88415 -0.84443,-1.76841 -1.26659,-2.65255 0.19465,-0.47667 0.38144,-0.96833 0.58084,-1.43558 1.63217,0.74281 3.67901,1.0271 5.26118,0.009 1.76312,-1.10659 2.54657,-3.19298 2.91765,-5.14956 0.18089,-0.91164 0.22494,-1.84583 0.16278,-2.77244 h -2.90887 c -0.38961,0.67942 -1.19651,1.41638 -2.02726,1.04128 -0.5319,-0.2108 -0.95834,-0.61168 -1.3224,-1.04231 -0.73406,-0.0358 -1.46833,-0.0678 -2.20245,-0.10232 -0.72937,1.88335 -1.45565,3.76805 -2.18385,5.65185 -0.56138,-1.17524 -1.12254,-2.35075 -1.68413,-3.52588 -0.2457,-0.18208 -0.88346,-0.3609 -0.29249,-0.54571 3.49103,-2.14071 6.98212,-4.28178 10.47326,-6.42234 V 86.428833 c -2.45032,-1.907511 -4.90141,-3.813937 -7.35201,-5.721098 2.24691,-1.273454 4.49377,-2.546985 6.74068,-3.820438 z m -7.1329,4.709273 6.80165,5.292183 V 99.82078 l -10.47016,6.42028 -6.636288,-4.86327 -2.009697,1.58957 -0.839225,-1.00097 2.465483,-2.044324 -0.05271,-12.088151 z m -4.63744,3.600814 v 13.684952 l 5.53506,3.738794 -0.0103,-13.719063 z m -22.947957,0.692981 -0.04393,12.507246 5.417757,3.486089 V 89.528385 Z m 46.479847,0.563273 -1.90272,1.450557 -0.13229,12.895335 5.18314,2.28823 0.0119,-14.065287 z m -22.58932,0.51108 c 1.21315,0.814179 2.42643,1.628054 3.63958,2.442228 0.004,3.812249 0.007,7.624788 0.0103,11.437024 -1.21663,-0.8219 -2.43328,-1.64409 -3.64991,-2.465996 z M 125.69,87.651497 c 0.74575,0.606963 1.49133,1.2136 2.23708,1.820561 -0.004,4.056189 -0.008,8.112582 -0.0114,12.168762 -1.09678,-0.48441 -2.19398,-0.96873 -3.29076,-1.45314 0.0406,-3.939041 0.0814,-7.878317 0.12196,-11.817363 0.3143,-0.239694 0.62879,-0.479126 0.94309,-0.71882 z m -45.523317,0.01034 c 1.165207,0.788277 2.330186,1.576442 3.495394,2.364713 v 10.12754 l -3.528984,-2.271172 z m 3.874699,17.140553 c 0.03325,0.0939 0.06649,0.18769 0.09973,0.28164 0.369222,1.11536 1.321595,2.02859 1.303797,3.25923 0.0088,0.38255 -0.257052,0.8506 -0.607715,0.93224 -1.216411,-1.00941 -2.652576,-1.78806 -4.191476,-2.17919 1.13196,-0.7647 2.263699,-1.52923 3.395659,-2.29392 z m -8.854757,8.41757 c 0.69727,-0.0517 1.401003,0.046 2.06189,0.33435 1.240012,0.47389 2.12217,1.52752 2.80448,2.62361 2.79201,3.79146 6.884863,6.39434 11.13317,8.2858 1.038636,0.46296 2.09982,0.87558 3.177584,1.23817 -0.868067,1.66371 -1.112851,3.56524 -1.142566,5.41879 h 2.437061 c 0.627759,-0.82701 1.76215,-1.54066 2.80293,-1.0449 0.07925,0.0322 0.151828,0.0763 0.226859,0.11576 v 6.83265 C 88.035866,135.5135 78.127076,129.56336 71.376005,121.20862 l 5.449797,-2.96364 c -1.417238,-1.64129 -2.437063,-3.11682 -3.314527,-4.60851 0.537775,-0.22111 1.102584,-0.37401 1.67535,-0.41651 z m -14.293184,14.32678 c 16.128385,20.40734 38.017317,21.72425 38.017317,21.72425 L 98.745911,173.345 H 31.332 V 146.79183 Z M 31.332454,185.63311 H 178.151 v 96.54501 H 31.332454 Z"
       sodipodi:nodetypes="ccccccccccccccccccccscccccccccccccccccccccccccccccccccccccccccccccccccccsccccccccccccccccccccccccccccccccccccccccccccccccccccccccccccccccccccccccccccccccccccccccccccccccccccccccccccccccccccccccccccccccccccccccccccccccccccccsccccccccccccccccccccccccccccccccccccccccccccccccccccccccccccccccccccccccccsccccccccccccscccccccccccccc" /><path
       id="path58"
       style="display:none;fill:#000000;fill-opacity:1;stroke:none;stroke-width:0.264583"
       d="m 101.49923,70.861308 -13.264306,9.288838 v 1.200444 c 3.34776,0.662612 3.827674,2.83807 3.827674,2.83807 v 20.27835 c -31.337387,8.05792 -37.46438,37.58789 -37.46438,37.58789 l -1.314132,0.63768 v 22.56607 l 11.988932,8.26409 7.289478,-4.9258 c 0.530587,3.34345 2.021065,5.09375 2.021065,5.09375 2.917478,6.10226 -1.97404,6.83266 -1.97404,6.83266 -12.769888,-10.84986 -21.551656,2.20762 -21.551656,2.20762 -0.777997,0.90267 -1.171504,2.19469 -1.171504,2.19469 l 1.297078,0.77463 c 6.885724,-4.61225 12.250932,0.41445 12.250932,0.41445 1.207238,1.1018 1.788521,2.00866 1.788521,2.00866 7.949881,12.42619 26.138973,17.37775 26.138973,17.37775 -2.629094,3.36275 -2.691825,8.42946 -2.691825,8.42946 h 1.752864 c 4.381826,-4.61959 8.414991,0.0351 8.414991,0.0351 h 0.742073 l 4.847252,-12.46487 3.7822,8.08891 7.49411,4.77904 11.24841,-7.66879 -2.14612,-2.11511 -2.28927,1.78335 c -3.33554,2.20803 -4.4266,-0.53071 -4.4266,-0.53071 24.59186,-6.26043 32.77423,-25.42481 32.77423,-25.42481 -0.28705,-0.0769 -6.73396,0 -6.73396,0 -6.24186,-0.58265 -5.73195,-4.78214 -5.73195,-4.78214 v -5.07514 l 5.40122,2.5399 c 5.99149,-5.31875 13.19041,-9.03563 13.19041,-9.03563 l 0.0679,-22.3094 2.94947,-2.45783 -1.36273,-1.79545 -2.5099,2.15124 -7.67552,-7.02277 -10.1229,7.73492 v -26.03923 c -9.31898,-7.4758 -17.27802,-9.30796 -17.27802,-9.30796 v -5.827553 l -8.16436,-7.703922 -10.13854,6.789203 0.0688,-27.386255 z m 4.90254,27.376623 4.83433,4.988329 V 126.476 l -8.53384,-4.77697 v -20.81372 z m -14.122648,15.313279 -0.02912,9.1694 -5.570024,3.59829 1.358057,1.36581 3.077146,-1.85583 11.972069,7.20383 17.95497,-10.17303 -0.0558,-8.31163 0.66766,4.20801 c 2.02592,0.7656 3.90726,1.91719 3.90726,1.91719 l 4.22971,-1.64692 -6.54482,4.28501 0.87902,1.18959 c 4.31893,-2.30323 4.92011,2.84685 4.92011,2.84685 v 36.11201 l -3.95169,3.46439 c 2.37094,0.15422 3.85144,0.68884 3.85144,0.68884 v 20.14968 h 1.83658 l 3.58428,-2.36833 -3.2613,2.82567 -2.77192,0.0108 v -0.73226 c -7.68056,5.49692 -15.06058,6.43889 -15.06058,6.43889 l 3.40651,8.28373 -6.86832,-14.39189 1.87017,-4.66535 c 12.78658,7.01826 13.44015,-9.40405 13.34647,-9.54825 h -2.56005 c -3.40614,4.36777 -7.16855,-0.0331 -7.16855,-0.0331 l -1.91461,-0.0879 -4.58629,11.88609 -4.21834,-8.8346 -6.311765,-3.78943 -10.162687,6.97838 1.168921,1.77354 1.858801,-1.17306 c 2.938643,-1.79566 4.585766,1.50327 4.585766,1.50327 l 7.725114,16.99741 -2.04794,4.80333 1.21336,-4.58267 -2.01486,-4.48345 C 85.041713,193.07624 75.4772,181.13224 75.726644,181.58013 l -5.754688,3.21117 9.89552,-6.77994 c 1.647422,-1.3219 2.560051,-1.65262 2.560051,-1.65262 5.0981,-2.41796 2.615861,-6.59287 2.615861,-6.59287 -1.981358,-2.73194 -1.758549,-6.42235 -1.758549,-6.42235 v -21.38216 l 3.70675,-3.00188 -1.280025,-1.60817 -3.395141,2.67115 -10.485665,-7.83776 -4.285527,2.7652 6.923609,-5.33197 c 6.578552,-7.9975 16.91938,-11.93571 16.91938,-11.93571 z m 17.628898,18.56682 -18.088302,10.50376 0.08888,20.35741 -4.151685,3.44217 1.413351,1.68568 3.384289,-2.67684 11.175547,8.1902 17.632,-10.81226 v -21.778 z m -7.80986,6.06423 9.30359,6.23868 0.0173,23.10352 -9.32088,-6.29658 z m -38.644669,1.16686 9.049577,6.12624 v 20.80648 l -9.123474,-5.87044 z m 78.272949,0.9484 5.32128,4.32651 -0.0194,23.6859 -8.72929,-3.85336 0.22324,-21.71653 z"
       sodipodi:nodetypes="ccccccccccccccccccccccccccccccccccccccccccccccccccccccccccccccccccccccccccccccccccccccccccccccccccccccccccccccccccccccccccccccccccccccccc"
       inkscape:label="Crest In - Backup"
       transform="matrix(0.59381602,0,0,0.59381602,41.551238,3.1426473)" /></g></svg>
