<?xml version="1.0" encoding="UTF-8" standalone="no"?>
<!-- Created with Inkscape (http://www.inkscape.org/) -->

<svg
   width="171.42493mm"
   height="121.3994mm"
   viewBox="0 0 171.42493 121.39942"
   version="1.1"
   id="svg1"
   xml:space="preserve"
   xmlns="http://www.w3.org/2000/svg"
   xmlns:svg="http://www.w3.org/2000/svg"><defs
     id="defs1" /><g
     id="g60"
     style="display:none"
     transform="matrix(0.6082537,0,0,0.6082537,20.295683,-136.57183)"><g
       id="layer1"
       style="display:inline"
       transform="matrix(1.6440508,0,0,1.6440508,-64.646295,-60.432895)"><g
         id="layer4"
         style="display:inline;fill:#000000;fill-opacity:1;stroke:none"
         transform="matrix(0.59678372,0,0,0.59678372,42.193143,4.6006617)"><g
           id="g56"
           transform="matrix(2.686301,0,0,2.686301,-38.675497,-2529.5671)"><path
             style="fill:none;stroke:#000000"
             d="M 0,1122.52 H 53.4506"
             id="path5" /><path
             style="fill:none;stroke:#000000"
             d="M 106.901,1122.52 H 53.4506"
             id="path6" /><path
             style="fill:none;stroke:#000000"
             d="M 0,1122.52 V 1014.98"
             id="path7" /><path
             style="fill:none;stroke:#000000"
             d="m 37.7953,949.517 15.6553,-9.038"
             id="path8" /><path
             d="M 37.795276,949.51747 A 75.590551,75.590551 0 0 0 0,1014.9808"
             style="fill:none;stroke:#000000"
             id="path9" /><path
             style="fill:none;stroke:#000000"
             d="M 106.901,1122.52 V 1014.98"
             id="path10" /><path
             style="fill:none;stroke:#000000"
             d="M 69.1059,949.517 53.4506,940.479"
             id="path11" /><path
             d="M 106.90118,1014.9808 A 75.590551,75.590551 0 0 0 69.105907,949.51747"
             style="fill:none;stroke:#000000"
             id="path12" /><path
             d="M 99.342128,1014.9808 A 68.031496,68.031496 0 0 0 65.32638,956.0638"
             style="fill:none;stroke:#000000"
             id="path13" /><path
             style="fill:none;stroke:#000000"
             d="m 65.3264,956.064 -8.0963,-4.675"
             id="path14" /><path
             style="fill:none;stroke:#000000"
             d="m 99.3421,1114.96 v -60.47"
             id="path15" /><path
             d="M 41.574803,956.0638 A 68.031496,68.031496 0 0 0 20.708717,974.77796"
             style="fill:none;stroke:#000000"
             id="path16" /><path
             style="fill:none;stroke:#000000"
             d="m 41.5748,956.064 8.0963,-4.675"
             id="path17" /><path
             style="fill:none;stroke:#000000"
             d="m 7.55905,1114.96 v -60.47"
             id="path18" /><path
             style="fill:none;stroke:#000000"
             d="m 49.6711,951.389 v 12.852"
             id="path19" /><path
             style="fill:none;stroke:#000000"
             d="m 57.2301,951.389 v 12.852"
             id="path20" /><path
             style="fill:none;stroke:#000000"
             d="m 57.2301,1031.85 v 15.08"
             id="path21" /><path
             style="fill:none;stroke:#000000"
             d="m 49.6711,1031.85 v 15.08"
             id="path22" /><path
             style="fill:none;stroke:#000000"
             d="m 26.0643,977.87 -5.3556,-3.092"
             id="path23" /><path
             style="fill:none;stroke:#000000"
             d="M 26.0643,1018.22 7.55905,1028.91"
             id="path24" /><path
             style="fill:none;stroke:#000000"
             d="m 22.2847,1011.68 -14.72565,8.5"
             id="path25" /><path
             style="fill:none;stroke:#000000"
             d="m 22.2847,984.416 -5.7026,-3.292"
             id="path26" /><path
             style="fill:none;stroke:#000000"
             d="M 7.55905,1114.96 H 49.6711"
             id="path27" /><path
             style="fill:none;stroke:#000000"
             d="M 99.3421,1114.96 H 57.2301"
             id="path28" /><path
             d="m 35.976039,983.59255 a 22.677165,22.677165 0 0 0 -3.779528,6.54634"
             style="fill:none;stroke:#000000"
             id="path29" /><path
             style="fill:none;stroke:#000000"
             d="m 49.6711,1024.23 v -3.82"
             id="path30" /><path
             style="fill:none;stroke:#000000"
             d="m 57.2301,1024.23 v -3.82"
             id="path31" /><path
             style="fill:none;stroke:#000000"
             d="m 32.6632,1014.41 3.3128,-1.91"
             id="path32" /><path
             style="fill:none;stroke:#000000"
             d="m 28.8837,1007.87 3.3128,-1.92"
             id="path33" /><path
             style="fill:none;stroke:#000000"
             d="m 28.8837,988.226 3.3128,1.913"
             id="path34" /><path
             style="fill:none;stroke:#000000"
             d="m 32.6632,981.68 3.3128,1.913"
             id="path35" /><path
             style="fill:none;stroke:#000000"
             d="M 49.6711,975.686 V 971.86"
             id="path36" /><path
             style="fill:none;stroke:#000000"
             d="M 57.2301,975.686 V 971.86"
             id="path37" /><path
             d="m 49.671064,964.24059 a 34.015748,34.015748 0 0 0 -23.606803,13.6294"
             style="fill:none;stroke:#000000"
             id="path38" /><path
             d="m 49.671064,971.86038 a 26.456693,26.456693 0 0 0 -17.007874,9.8195"
             style="fill:none;stroke:#000000"
             id="path39" /><path
             d="m 57.230119,975.68573 a 22.677165,22.677165 0 0 0 -7.559055,0"
             style="fill:none;stroke:#000000"
             id="path40" /><path
             d="m 32.196511,1005.9525 a 22.677165,22.677165 0 0 0 3.779528,6.5464"
             style="fill:none;stroke:#000000"
             id="path41" /><path
             d="m 49.671064,1020.4057 a 22.677165,22.677165 0 0 0 7.559055,0"
             style="fill:none;stroke:#000000"
             id="path42" /><path
             d="m 22.284733,984.41632 a 34.015748,34.015748 0 0 0 0,27.25878"
             style="fill:none;stroke:#000000"
             id="path43" /><path
             d="m 28.883662,988.22621 a 26.456693,26.456693 0 0 0 0,19.63899"
             style="fill:none;stroke:#000000"
             id="path44" /><path
             d="m 26.064261,1018.2214 a 34.015748,34.015748 0 0 0 23.606803,13.6294"
             style="fill:none;stroke:#000000"
             id="path45" /><path
             d="m 32.66319,1014.4115 a 26.456693,26.456693 0 0 0 17.007874,9.8196"
             style="fill:none;stroke:#000000"
             id="path46" /><path
             d="m 57.230119,1031.8508 a 34.015748,34.015748 0 0 0 0,-67.61021"
             style="fill:none;stroke:#000000"
             id="path47" /><path
             d="m 57.230119,1024.2311 a 26.456693,26.456693 0 0 0 0,-52.37072"
             style="fill:none;stroke:#000000"
             id="path48" /><path
             d="M 16.582118,981.12391 A 68.031496,68.031496 0 0 0 7.559055,1014.9808"
             style="fill:none;stroke:#000000"
             id="path49" /><path
             style="fill:none;stroke:#000000"
             d="m 7.55905,1020.18 v -5.2"
             id="path50" /><path
             d="M 49.671064,1046.9291 H 7.559055"
             style="fill:none;stroke:#000000"
             id="path51" /><path
             d="m 7.559055,1114.9606 h 91.783073 v -60.4724 H 7.559055 Z"
             style="fill:none;stroke:#000000"
             id="path52" /><path
             style="fill:none;stroke:#000000"
             d="m 7.55905,1046.93 v -18.02"
             id="path53" /><path
             style="fill:none;stroke:#000000"
             d="m 99.3421,1046.93 v -31.95"
             id="path54" /><path
             d="m 0,1046.9291 v 0 75.5906 h 106.90118 v -75.5906"
             style="fill:none;stroke:#000000"
             id="path55" /><path
             d="M 99.342128,1046.9291 H 57.230119"
             style="fill:none;stroke:#000000"
             id="path56" /></g></g></g></g><g
     id="layer3"
     style="display:inline;stroke:#daa520"
     transform="translate(-19.025665,-173.33036)"><path
       id="path57"
       style="fill:#daa520;stroke:none;stroke-width:2;stroke-dasharray:none"
       d="M 104.74141,2.4685787 80.054545,16.927649 C 19.573174,51.312109 19.044,120 19.044,120 l -2.01e-4,174.7355 171.394711,-0.15348 V 120 C 186.37136,47.396289 129.25154,16.927999 129.25154,16.927999 Z M 98.62137,19.999999 v 20.64558 c -25.559096,2.61825 -37.528458,22.0679 -37.528458,22.0679 l -8.478036,-4.9255 c 0,0 8.867919,-15.57099 27.440124,-26.89547 z m 12.1021,0 18.52853,11.31471 c 0,0 48.97873,28.93595 48.899,100.859291 v 41.171 h -67.13294 l -0.18707,-24.074 c 27.90975,-3.79543 48.6976,-27.00603 48.6916,-54.260262 -0.006,-27.254249 -20.80348,-50.509389 -48.46836,-54.198249 z m -8.90023,25.22101 0.78652,0.0139 -0.0408,16.26257 6.02031,-4.03179 4.84828,4.57491 v 3.46077 c 0,0 4.72609,1.08755 10.25984,5.5268 v 15.462623 l 6.01152,-4.593002 4.55786,4.170289 1.49035,-1.277442 0.80925,1.066085 -1.75183,1.459342 -0.0403,13.247776 c 0,0 -4.27476,2.20721 -7.83259,5.36556 l -3.20704,-1.50843 v 3.01377 c 0,0 -0.30311,2.49363 3.40341,2.83962 0,0 3.82826,-0.0457 3.99872,0 0,0 -4.85884,11.38024 -19.46186,15.09778 0,0 0.64808,1.62639 2.62878,0.31523 l 1.35909,-1.05885 1.27486,1.25574 -6.6797,4.55372 -4.45037,-2.83755 -2.24586,-4.80332 -2.87838,7.40161 h -0.44028 c 0,0 -2.395118,-2.76385 -4.997114,-0.0207 h -1.040763 c 0,0 0.03716,-3.00853 1.598352,-5.00538 0,0 -10.801288,-2.9404 -15.52205,-10.31927 0,0 -0.345075,-0.53842 -1.061951,-1.19269 0,0 -3.185642,-2.98532 -7.274491,-0.24649 l -0.770496,-0.45992 c 0,0 0.233578,-0.76726 0.695565,-1.30328 0,0 5.214712,-7.75333 12.797668,-1.31052 0,0 2.904982,-0.43402 1.172538,-4.05763 0,0 -0.885372,-1.03923 -1.200443,-3.02462 l -4.328418,2.92488 -7.118945,-4.90719 V 87.875723 l 0.780314,-0.378788 c 0,0 3.63808,-17.535166 22.246704,-22.320086 v -12.04164 c 0,0 -0.284778,-1.2917 -2.27273,-1.68517 v -0.71314 z m 8.99015,7.78867 c 20.98169,2.98172 36.29268,20.798671 36.33318,41.834661 0.0405,21.03599 -15.41062,39.11801 -36.27995,42.17966 v -5.85836 c 2.51627,-1.71655 5.03307,-3.43236 7.54889,-5.14956 -0.48922,-0.48075 -0.97737,-0.96256 -1.46606,-1.44384 6.30389,-2.70388 11.77172,-7.51187 14.92002,-13.63948 0.23691,-0.50205 0.45599,-1.01189 0.68523,-1.51773 -1.97501,-0.21337 -3.96726,0.0149 -5.94124,-0.16485 -0.85514,-0.13981 -1.89274,-0.64231 -1.92133,-1.63298 -0.0481,-0.56778 -0.006,-1.1385 -0.006,-1.70739 0.80324,0.37832 1.6075,0.75479 2.41018,1.1343 2.59659,-2.34138 5.53575,-4.27532 8.61705,-5.91592 0.0158,-4.45669 0.0291,-8.913535 0.0439,-13.370239 0.70078,-0.585081 1.40275,-1.168883 2.10272,-1.754932 -0.65222,-0.860449 -1.30462,-1.720259 -1.9575,-2.580204 -0.53855,0.461964 -1.07688,0.923979 -1.61541,1.385962 -1.5077,-1.379806 -3.01571,-2.759287 -4.52324,-4.139282 -1.70835,1.304681 -3.41618,2.609926 -5.12423,3.915006 V 70.569849 c -3.06862,-2.47334 -6.49838,-4.56632 -10.26759,-5.77484 0.0353,-1.05314 -0.008,-2.10709 0.008,-3.16053 -1.18599,-1.12017 -2.37325,-2.23909 -3.55999,-3.35845 v -5.2e-4 z m -15.537035,0.66663 v 10.77919 c -6.606901,1.79979 -12.610436,5.8184 -16.672884,11.345559 -2.478103,3.300726 -4.350672,7.07561 -5.438428,11.048938 -0.453053,0.108888 -0.857236,0.436168 -0.911055,0.922424 -0.0552,0.635276 0.03439,1.274871 -0.0052,1.913579 V 101.7695 c 2.485475,1.71469 4.971658,3.42806 7.457426,5.14232 -2.868547,-0.41624 -5.733265,0.98516 -7.65483,3.05769 -0.09582,0.10307 -0.185168,0.21321 -0.278536,0.31937 -0.372597,-0.82195 -0.73736,-1.66902 -1.119311,-2.59158 l -5.115451,2.97605 C 60.946214,100.21103 61.653889,89.284777 65.449756,79.176562 l 5.369698,3.162081 c 1.895206,-5.165682 3.266625,-6.806804 5.983097,-10.604004 l -5.360396,-2.92592 c 6.022142,-7.66417 14.404398,-12.97243 23.834204,-15.13241 z m 13.413655,2.5895 c -1.72544,1.15387 -3.4494,2.30984 -5.17436,3.46439 v -5.1e-4 c 1.72487,-1.1545 3.44901,-2.31007 5.17436,-3.46388 z m -3.95583,5.21209 -2.19677,1.572 v 12.359452 l 5.06739,2.836519 V 64.439989 Z m -0.11421,1.24023 c 0.6808,0.70284 1.36145,1.40557 2.04225,2.1084 v 11.813754 c -1.06044,-0.593422 -2.12076,-1.186823 -3.1812,-1.780253 V 63.533069 c 0.37964,-0.27178 0.75931,-0.54316 1.13895,-0.81494 z m -58.308745,5.48168 8.328334,4.872217 c -10.039104,26.990354 0.49351,43.777174 0.49351,43.777174 L 31.332,132.17407 C 30.937251,90.975722 46.311225,68.199809 46.311225,68.199809 Z m 50.036899,2.37159 -0.529166,2.453084 c 0,0 -6.140487,2.338384 -10.046932,7.087423 l -4.111377,3.166215 2.545064,-1.642277 6.226493,4.654496 2.015898,-1.586466 0.76016,0.95498 -2.200899,1.782837 v 12.696899 c 0,0 -0.132697,2.19145 1.043864,3.81372 0,0 1.473937,2.47919 -1.553394,3.91501 0,0 -0.541539,0.19637 -1.519804,0.98133 l -5.876127,4.02611 3.416846,-1.90686 c -0.148124,-0.26596 5.53143,6.8267 14.76654,7.71581 l 1.19683,2.66237 -0.72089,2.72128 1.21646,-2.85254 -4.587313,-10.09344 c 0,0 -0.978337,-1.95874 -2.723348,-0.89245 l -1.103809,0.6966 -0.694014,-1.05317 6.034773,-4.14393 3.748091,2.24999 2.50476,5.24619 2.72335,-7.05796 1.13688,0.0522 c 0,0 2.23448,2.61329 4.2571,0.0196 h 1.52032 c 0.0556,0.0856 -0.33274,9.83749 -7.92561,5.66993 l -1.11053,2.77038 4.07882,8.54625 -2.02313,-4.91908 c 0,0 4.38229,-0.55939 8.94312,-3.82354 v 0.4346 l 1.6459,-0.006 1.93683,-1.67794 -2.12855,1.40612 h -1.09037 v -11.96516 c 0,0 -0.8793,-0.31719 -2.2872,-0.40876 l 2.34662,-2.05724 V 78.763668 c 0,0 -0.35713,-3.05803 -2.92178,-1.690336 l -0.52193,-0.706417 3.88658,-2.544548 -2.51147,0.978235 c 0,0 -1.11725,-0.684323 -2.32028,-1.138948 l -0.39635,-2.498556 0.0331,4.935616 -10.66188,6.040975 -7.109646,-4.277775 -1.827279,1.101742 -0.806152,-0.810804 3.307291,-2.13682 z m -0.955497,3.66438 -0.0036,1.265556 c -1.284986,0.830515 -2.570472,1.660194 -3.855062,2.49132 0.71683,0.720156 1.432889,1.440977 2.149223,2.161626 0.658027,-0.397744 1.315526,-0.795413 1.973523,-1.193209 2.261985,1.361599 4.524159,2.722905 6.786149,4.084505 -2.43804,1.414675 -4.874919,2.831927 -7.313766,4.245219 0.01817,4.063528 0.03467,8.126936 0.05219,12.19047 -0.949565,0.787794 -1.898397,1.576424 -2.848405,2.363684 0.676536,0.81128 1.355453,1.62037 2.032951,2.43086 0.722038,-0.57195 1.444646,-1.14335 2.166793,-1.71515 l 3.056144,2.24069 c -2.337834,1.60544 -4.67531,3.21137 -7.013525,4.81625 0.563777,0.85727 1.128793,1.71404 1.692403,2.57142 0.850028,-0.35684 1.494296,-1.11731 2.406571,-1.32809 0.807339,0.12721 1.016683,1.04924 1.323951,1.67794 0.767892,1.69003 1.53584,3.37994 2.303733,5.06997 -4.798252,-0.75822 -9.20034,-3.30539 -12.575458,-6.75359 1.231742,-0.82721 2.361924,-1.738 3.681946,-2.41071 1.103888,-0.62411 1.977476,-1.77848 1.942517,-3.08921 0.021,-0.97655 -0.443636,-1.86877 -0.937927,-2.67684 -0.734739,-1.70319 -0.379216,-3.598186 -0.462504,-5.393989 v -9.393225 c 0.858967,-0.696717 1.717945,-1.39268 2.576587,-2.089795 -0.641637,-0.805688 -1.283179,-1.611118 -1.925981,-2.415873 -0.727773,0.572407 -1.456424,1.143981 -2.184363,1.716174 L 85.558602,81.47203 c 1.112593,-0.766794 1.862856,-1.917313 2.893363,-2.777609 2.070539,-1.866621 4.428875,-3.307075 6.940662,-4.458642 z m 19.021573,0.717785 c 0.058,0.02344 0.1545,0.109422 0.27854,0.144178 0.36048,0.04335 -0.57394,0.671427 -0.32659,0.08682 -0.0292,-0.215484 -0.01,-0.254428 0.048,-0.230994 z m -0.46508,1.933733 c 0.28917,0.391626 0.57847,0.782978 0.86764,1.174605 0.1656,0.435865 0.54624,-0.06516 0.82683,-0.134359 0.38369,-0.21682 1.02648,-0.452173 1.28881,0.06046 0.52166,0.887313 0.23498,1.962945 0.30489,2.937288 v 18.854146 c -1.22807,1.078013 -2.45785,2.153803 -3.68453,3.233393 1.21962,0.13182 2.44118,0.14873 3.6251,0.38861 v 10.3327 c -2.43347,1.71266 -5.19672,2.99003 -8.12508,3.56258 -0.42217,-0.88415 -0.84443,-1.76841 -1.26659,-2.65255 0.19465,-0.47667 0.38144,-0.96833 0.58084,-1.43558 1.63217,0.74281 3.67901,1.0271 5.26118,0.009 1.76312,-1.10659 2.54657,-3.19298 2.91765,-5.14956 0.18089,-0.91164 0.22494,-1.84583 0.16278,-2.77244 h -2.90887 c -0.38961,0.67942 -1.19651,1.41638 -2.02726,1.04128 -0.5319,-0.2108 -0.95834,-0.61168 -1.3224,-1.04231 -0.73406,-0.0358 -1.46833,-0.0678 -2.20245,-0.10232 -0.72937,1.88335 -1.45565,3.76805 -2.18385,5.65185 -0.56138,-1.17524 -1.12254,-2.35075 -1.68413,-3.52588 -0.2457,-0.18208 -0.88346,-0.3609 -0.29249,-0.54571 3.49103,-2.14071 6.98212,-4.28178 10.47326,-6.42234 V 86.428833 c -2.45032,-1.907511 -4.90141,-3.813937 -7.35201,-5.721098 2.24691,-1.273454 4.49377,-2.546985 6.74068,-3.820438 z m -7.1329,4.709273 6.80165,5.292183 V 99.82078 l -10.47016,6.42028 -6.636288,-4.86327 -2.009697,1.58957 -0.839225,-1.00097 2.465483,-2.044324 -0.05271,-12.088151 z m -4.63744,3.600814 v 13.684952 l 5.53506,3.738794 -0.0103,-13.719063 z m -22.947957,0.692981 -0.04393,12.507246 5.417757,3.486089 V 89.528385 Z m 46.479847,0.563273 -1.90272,1.450557 -0.13229,12.895335 5.18314,2.28823 0.0119,-14.065287 z m -22.58932,0.51108 c 1.21315,0.814179 2.42643,1.628054 3.63958,2.442228 0.004,3.812249 0.007,7.624788 0.0103,11.437024 -1.21663,-0.8219 -2.43328,-1.64409 -3.64991,-2.465996 z M 125.69,87.651497 c 0.74575,0.606963 1.49133,1.2136 2.23708,1.820561 -0.004,4.056189 -0.008,8.112582 -0.0114,12.168762 -1.09678,-0.48441 -2.19398,-0.96873 -3.29076,-1.45314 0.0406,-3.939041 0.0814,-7.878317 0.12196,-11.817363 0.3143,-0.239694 0.62879,-0.479126 0.94309,-0.71882 z m -45.523317,0.01034 c 1.165207,0.788277 2.330186,1.576442 3.495394,2.364713 v 10.12754 l -3.528984,-2.271172 z m 3.874699,17.140553 c 0.03325,0.0939 0.06649,0.18769 0.09973,0.28164 0.369222,1.11536 1.321595,2.02859 1.303797,3.25923 0.0088,0.38255 -0.257052,0.8506 -0.607715,0.93224 -1.216411,-1.00941 -2.652576,-1.78806 -4.191476,-2.17919 1.13196,-0.7647 2.263699,-1.52923 3.395659,-2.29392 z m -8.854757,8.41757 c 0.69727,-0.0517 1.401003,0.046 2.06189,0.33435 1.240012,0.47389 2.12217,1.52752 2.80448,2.62361 2.79201,3.79146 6.884863,6.39434 11.13317,8.2858 1.038636,0.46296 2.09982,0.87558 3.177584,1.23817 -0.868067,1.66371 -1.112851,3.56524 -1.142566,5.41879 h 2.437061 c 0.627759,-0.82701 1.76215,-1.54066 2.80293,-1.0449 0.07925,0.0322 0.151828,0.0763 0.226859,0.11576 v 6.83265 C 88.035866,135.5135 78.127076,129.56336 71.376005,121.20862 l 5.449797,-2.96364 c -1.417238,-1.64129 -2.437063,-3.11682 -3.314527,-4.60851 0.537775,-0.22111 1.102584,-0.37401 1.67535,-0.41651 z m -14.293184,14.32678 c 16.128385,20.40734 38.017317,21.72425 38.017317,21.72425 L 98.745911,173.345 H 31.332 V 146.79183 Z M 31.332454,185.63311 H 178.151 v 96.54501 H 31.332454 Z" /></g></svg>
